<svg viewBox="-25 -25 50 50" xmlns="http://www.w3.org/2000/svg">
  <defs>
    <!-- 木鱼深紫檀红木渐变 -->
    <radialGradient id="fish-wood-grad" cx="42%" cy="28%" r="72%">
      <stop offset="0%" stop-color="#F59E0B"/>
      <stop offset="25%" stop-color="#D97706"/>
      <stop offset="55%" stop-color="#92400E"/>
      <stop offset="85%" stop-color="#78350F"/>
      <stop offset="100%" stop-color="#451A03"/>
    </radialGradient>

    <!-- 木鱼卷尾提梁渐变 -->
    <linearGradient id="fish-handle-grad" x1="0" y1="0" x2="1" y2="1">
      <stop offset="0%" stop-color="#D97706"/>
      <stop offset="60%" stop-color="#78350F"/>
      <stop offset="100%" stop-color="#451A03"/>
    </linearGradient>

    <!-- 朱红锦缎蒲团绸面渐变 -->
    <radialGradient id="cushion-silk-grad" cx="50%" cy="30%" r="70%">
      <stop offset="0%" stop-color="#EF4444"/>
      <stop offset="40%" stop-color="#DC2626"/>
      <stop offset="80%" stop-color="#991B1B"/>
      <stop offset="100%" stop-color="#7F1D1D"/>
    </radialGradient>

    <!-- 蒲团金丝滚边渐变 -->
    <linearGradient id="gold-brocade-grad" x1="0" y1="0" x2="1" y2="0">
      <stop offset="0%" stop-color="#F59E0B"/>
      <stop offset="50%" stop-color="#FEF08A"/>
      <stop offset="100%" stop-color="#D97706"/>
    </linearGradient>

    <!-- 伴生木槌槌头渐变 -->
    <radialGradient id="mallet-head-grad" cx="35%" cy="35%" r="65%">
      <stop offset="0%" stop-color="#FDE68A"/>
      <stop offset="40%" stop-color="#D97706"/>
      <stop offset="85%" stop-color="#78350F"/>
      <stop offset="100%" stop-color="#451A03"/>
    </radialGradient>

    <!-- 伴生木槌木柄渐变 -->
    <linearGradient id="mallet-handle-grad" x1="0" y1="0" x2="0" y2="1">
      <stop offset="0%" stop-color="#B45309"/>
      <stop offset="100%" stop-color="#78350F"/>
    </linearGradient>

    <!-- 功德金色光晕与文字渐变 -->
    <linearGradient id="gold-plus-grad" x1="0" y1="0" x2="0" y2="1">
      <stop offset="0%" stop-color="#FFFFFF"/>
      <stop offset="40%" stop-color="#FEF08A"/>
      <stop offset="100%" stop-color="#F59E0B"/>
    </linearGradient>
  </defs>

  <!-- 1. 地面柔和阴影 (#shadow-js) -->
  <g id="shadow-js" style="transform-origin: 0px 18px">
    <ellipse cx="0" cy="18" rx="13" ry="2.2" fill="rgba(28,10,0,0.22)"/>
  </g>

  <!-- 2. 朱红金边锦缎蒲团底座 (#cushion-base) -->
  <g id="cushion-base" style="transform-origin: 0px 16px">
    <!-- 蒲团底座厚度暗面 -->
    <ellipse cx="0" cy="15.8" rx="12.5" ry="3.2" fill="#7F1D1D"/>
    <!-- 蒲团锦缎绸面 -->
    <ellipse cx="0" cy="14.8" rx="12" ry="3.0" fill="url(#cushion-silk-grad)" stroke="#451A03" stroke-width="0.6"/>
    <!-- 蒲团侧边褶皱花瓣线 (Lotus Pleats) -->
    <path d="M -11 14.8 Q -6 16.5 0 16.5 Q 6 16.5 11 14.8" fill="none" stroke="url(#gold-brocade-grad)" stroke-width="0.8" stroke-linecap="round"/>
    <path d="M -8 15.2 Q -4 16.8 0 16.8 Q 4 16.8 8 15.2" fill="none" stroke="#7F1D1D" stroke-width="0.5"/>
    <!-- 蒲团前方金丝流苏结 -->
    <line x1="0" y1="16.5" x2="0" y2="18.2" stroke="#F59E0B" stroke-width="0.9" stroke-linecap="round"/>
    <circle cx="0" cy="16.3" r="0.8" fill="#FEF08A"/>
  </g>

  <!-- 3. 正宗法器木鱼主体躯干层 (#body-js) - 彻底无眼无五官纯正法器 -->
  <g id="body-js" style="transform-origin: 0px 14.5px">
    <!-- 3.1 木鱼后部镂空卷尾提梁把手 (Carved Tail Handle) -->
    <g id="fish-handle">
      <!-- 卷尾外圈 -->
      <path d="M -6 5.5 C -9.5 2, -14 5, -13.5 10 C -13 13.5, -9 14.5, -6 12 C -7.5 10.5, -7.5 8, -6 5.5 Z"
            fill="url(#fish-handle-grad)" stroke="#260C02" stroke-width="0.8" stroke-linejoin="round"/>
      <!-- 卷尾内镂空孔 -->
      <path d="M -8 6.8 C -10.5 5, -11.8 7, -11.5 9.5 C -11.2 11.2, -9.5 11.8, -8 10.5 C -8.8 9.5, -8.8 8, -8 6.8 Z"
            fill="#7F1D1D" stroke="#260C02" stroke-width="0.5"/>
    </g>

    <!-- 3.2 木鱼饱满鱼腹共鸣腔体 (Fish Main Body) -->
    <path id="fish-main-dome"
          d="M -7 11.5 C -8.5 4, -5 -3.5, 0 -4 C 5 -4.5, 9.8 -1.5, 10.5 4.5 C 11 8.5, 9.5 13, 5 14 C 0 14.8, -5 14.5, -7 11.5 Z"
          fill="url(#fish-wood-grad)" stroke="#260C02" stroke-width="0.9" stroke-linejoin="round"/>

    <!-- 3.3 顶部受光琥珀色高光弧面 -->
    <path d="M -4 -1.5 C -1 -3, 3 -3, 6 0.5"
          fill="none" stroke="#FEF3C7" stroke-width="0.9" stroke-linecap="round" opacity="0.65"/>

    <!-- 3.4 背脊双层立体浮雕鱼鳞云纹雕花 (Traditional Carved Motifs) -->
    <g id="carved-motifs">
      <!-- 第 1 层背脊雕纹 (上层) -->
      <path d="M -4 1 C -1 -1.2, 4 -0.8, 6.5 2" fill="none" stroke="#260C02" stroke-width="0.8" stroke-linecap="round"/>
      <path d="M -4 0.6 C -1 -1.6, 4 -1.2, 6.5 1.6" fill="none" stroke="#FEF3C7" stroke-width="0.5" stroke-linecap="round" opacity="0.75"/>

      <!-- 第 2 层背脊雕纹 (中层) -->
      <path d="M -5 4.8 C -1 2.8, 4 3.2, 7.5 5.8" fill="none" stroke="#260C02" stroke-width="0.8" stroke-linecap="round"/>
      <path d="M -5 4.4 C -1 2.4, 4 2.8, 7.5 5.4" fill="none" stroke="#FEF3C7" stroke-width="0.5" stroke-linecap="round" opacity="0.75"/>

      <!-- 第 3 层如意回纹 (下层侧雕) -->
      <path d="M -3 8.2 C 0 6.6, 3.5 6.8, 6.5 9" fill="none" stroke="#260C02" stroke-width="0.7" stroke-linecap="round"/>
      <path d="M -3 7.8 C 0 6.2, 3.5 6.4, 6.5 8.6" fill="none" stroke="#D97706" stroke-width="0.5" stroke-linecap="round" opacity="0.8"/>
    </g>

    <!-- 3.5 贯穿正面与侧面的镂空发音横槽与共鸣双孔 (Sound Slit & Holes) -->
    <g id="sound-slit">
      <!-- 贯穿深槽阴影 -->
      <path d="M -4.5 11.5 Q 1 12.8 8 10.2 Q 8.8 10.8 7.5 11.8 Q 1 14 -4.5 12.8 Z"
            fill="#1C0A00" stroke="#260C02" stroke-width="0.6"/>
      <!-- 左侧共鸣扩孔圆孔 -->
      <circle cx="-4.2" cy="12.0" r="1.3" fill="#1C0A00" stroke="#260C02" stroke-width="0.6"/>
      <!-- 右侧鱼口发音扩孔大圆孔 (张开鱼嘴) -->
      <circle cx="7.8" cy="10.8" r="1.6" fill="#1C0A00" stroke="#260C02" stroke-width="0.6"/>
      <!-- 发音孔上唇立体雕刻反光唇线 -->
      <path d="M -4.2 10.8 Q 1 12.0 7.8 9.5" fill="none" stroke="#FEF3C7" stroke-width="0.6" stroke-linecap="round" opacity="0.65"/>
    </g>
  </g>

  <!-- 4. 悬浮伴生敲击木槌层 (#mallet-js) -->
  <g id="mallet-js" style="transform-origin: 11px -2px">
    <!-- 槌柄 -->
    <path d="M 10 4 L 14 -8" stroke="url(#mallet-handle-grad)" stroke-width="1.4" stroke-linecap="round"/>
    <!-- 槌柄红布绑带装饰 -->
    <rect x="12" y="-4" width="2.2" height="1.4" rx="0.5" fill="#DC2626" transform="rotate(-68 13 -3.5)"/>
    <!-- 圆润木质槌头 -->
    <ellipse cx="8.8" cy="-4" rx="3.5" ry="2.6" fill="url(#mallet-head-grad)" stroke="#260C02" stroke-width="0.8" transform="rotate(-28 8.8 -4)"/>
    <!-- 槌头高光点 -->
    <circle cx="8.0" cy="-4.8" r="0.8" fill="#FEF3C7" opacity="0.8"/>
  </g>

  <!-- 5. 浮空功德光效与“+1”飘散层 (#effects-js) -->
  <g id="effects-js">
    <!-- 静态母版中示意 -->
  </g>
</svg>
